<svg xmlns="http://www.w3.org/2000/svg" viewBox="0 0 512 512" fill="none">
  <rect width="512" height="512" rx="112" fill="#735b25"/>
  <g transform="translate(96, 96)">
    <path d="M24 328C24 316.954 32.9543 308 44 308H276C287.046 308 296 316.954 296 328V332C296 343.046 287.046 352 276 352H44C32.9543 352 24 343.046 24 332V328Z" fill="white" fill-opacity="0.3"/>
    <path d="M44 48H156V308H44C32.9543 308 24 299.046 24 288V68C24 56.9543 32.9543 48 44 48Z" fill="white" fill-opacity="0.9"/>
    <path d="M156 48H268C279.046 48 288 56.9543 288 68V288C288 299.046 279.046 308 268 308H156V48Z" fill="white"/>
    <rect x="156" y="48" width="8" height="260" fill="white" fill-opacity="0.4"/>
    <rect x="64" y="96" width="72" height="8" rx="4" fill="#735b25" fill-opacity="0.5"/>
    <rect x="64" y="120" width="60" height="8" rx="4" fill="#735b25" fill-opacity="0.35"/>
    <rect x="64" y="144" width="68" height="8" rx="4" fill="#735b25" fill-opacity="0.35"/>
    <rect x="176" y="96" width="72" height="8" rx="4" fill="#735b25" fill-opacity="0.5"/>
    <rect x="176" y="120" width="60" height="8" rx="4" fill="#735b25" fill-opacity="0.35"/>
    <rect x="176" y="144" width="68" height="8" rx="4" fill="#735b25" fill-opacity="0.35"/>
  </g>
</svg>
